<svg width="157" height="26" viewBox="0 0 157 26" fill="none" xmlns="http://www.w3.org/2000/svg">
<g clip-path="url(#clip0_1_175)">
<path d="M21.1579 0.0566406H18.3435C18.062 0.0566406 17.4992 0.169218 17.4992 1.06983V16.0424C17.4992 16.943 17.4429 17.7311 17.3303 18.2939C17.2177 18.8568 17.0488 19.3071 16.8237 19.6449C16.5985 19.9263 16.3171 20.1514 15.9231 20.3203C15.5291 20.4329 14.9662 20.5455 14.347 20.5455H7.87391C7.25474 20.5455 6.69186 20.4329 6.29785 20.3203C5.90383 20.1514 5.62239 19.9826 5.39724 19.6449C5.17209 19.3071 5.00323 18.8568 4.89065 18.2939C4.77807 17.7311 4.72179 16.943 4.72179 16.0424V1.06983C4.72179 0.11293 4.15891 0.0566406 3.87747 0.0566406H1.11936C0.837917 0.0566406 0.21875 0.169218 0.21875 1.06983V15.5358C0.21875 17.2245 0.331324 18.688 0.612764 19.87C0.894204 21.1083 1.34451 22.0652 1.96368 22.8533C2.52656 23.6413 3.37087 24.2042 4.27148 24.5419C5.22838 24.8796 6.35414 25.0485 7.70505 25.0485H14.5159C15.8668 25.0485 16.9926 24.8796 17.9495 24.5419C18.9064 24.2042 19.6944 23.6413 20.3135 22.8533C20.9327 22.1215 21.3267 21.1083 21.6082 19.87C21.8896 18.688 22.0022 17.2245 22.0022 15.5358V1.06983C22.0022 0.11293 21.4393 0.0566406 21.1579 0.0566406Z" fill="white"/>
<path d="M44.0618 20.5451H34.2115C33.5923 20.5451 33.0857 20.4888 32.6354 20.3199C32.2977 20.2074 31.9599 19.9822 31.7348 19.6445C31.5096 19.3068 31.2845 18.8565 31.2282 18.2936C31.1156 17.6744 31.0593 16.9427 31.0593 16.0421V1.06947C31.0593 0.112572 30.4402 0 30.215 0H27.4006C27.1192 0 26.5 0.112572 26.5 1.06947V15.4792C26.5 17.1678 26.6689 18.6313 26.9503 19.8134C27.2317 21.0517 27.6258 22.0086 28.2449 22.7966C28.8641 23.5847 29.6521 24.1475 30.609 24.4853C31.5096 24.823 32.6917 24.9918 33.9863 24.9918H44.0056C44.287 24.9918 44.8499 24.8793 44.8499 23.9224V21.502C44.9062 20.6577 44.3433 20.5451 44.0618 20.5451Z" fill="white"/>
<path d="M65.9018 0.0566406H45.8069C45.5254 0.0566406 44.9062 0.169218 44.9062 1.06983V3.43392C44.9062 4.4471 45.5254 4.50339 45.8069 4.50339H53.5746V23.979C53.5746 24.9359 54.1938 24.9922 54.4189 24.9922H57.2333C57.5147 24.9922 58.0776 24.8796 58.0776 23.979V4.50339H65.8454C66.1268 4.50339 66.7461 4.39081 66.7461 3.43392V1.06983C66.7461 0.11293 66.1269 0.0566406 65.9018 0.0566406Z" fill="white"/>
<path d="M74.9712 0.0566406H72.1568C71.9317 0.0566406 71.3125 0.169222 71.3125 1.12612V24.0353C71.3125 24.9922 71.9317 25.1048 72.1568 25.1048H74.9712C75.1964 25.1048 75.8155 24.9922 75.8155 24.0353V1.12612C75.8155 0.169222 75.2527 0.0566406 74.9712 0.0566406Z" fill="white"/>
<path d="M105.698 0.0566406H102.997C102.546 0.0566406 102.265 0.112927 101.927 0.169215C101.646 0.281791 101.364 0.394368 101.083 0.61952C100.858 0.844672 100.632 1.12612 100.464 1.52013C100.295 1.85786 100.126 2.36445 99.957 2.92733L94.6096 16.3239C94.5534 16.4364 94.5533 16.4364 94.4971 16.4364H94.2156C94.2156 16.4364 94.1593 16.4364 94.103 16.3239L88.7557 2.92733C88.5868 2.36445 88.418 1.91415 88.2491 1.52013C88.0802 1.1824 87.8551 0.90096 87.6299 0.61952C87.4048 0.394368 87.0671 0.281791 86.7856 0.169215C86.5042 0.0566389 86.1102 0.0566406 85.7161 0.0566406H82.9017C81.8886 0.0566406 81.1568 0.394367 80.8191 1.01353C80.4814 1.57641 80.3125 2.53332 80.3125 3.94051V23.979C80.3125 24.9359 80.9317 25.0485 81.2131 25.0485H83.8024C84.0838 25.0485 84.6467 24.9359 84.6467 23.979V5.74173C84.6467 5.68544 84.6467 5.68544 84.6467 5.68544H84.8155C84.8718 5.68544 84.8718 5.68543 84.9281 5.79801L90.1066 18.6317C90.3318 19.2508 90.5569 19.8137 90.7258 20.264C90.9509 20.7143 91.2324 21.1083 91.4575 21.3898C91.739 21.6712 92.0767 21.9527 92.4144 22.0652C92.7521 22.1778 93.1462 22.2341 93.6527 22.2341H94.8911C95.3414 22.2341 95.7917 22.1778 96.1294 22.0652C96.4671 21.9527 96.8049 21.7275 97.0863 21.3898C97.3115 21.1083 97.5929 20.7143 97.8181 20.264C98.0432 19.8137 98.2684 19.2508 98.4372 18.6317L103.672 5.79801C103.672 5.74172 103.728 5.74173 103.728 5.74173H103.897V5.79801V24.0353C103.897 24.9922 104.516 25.1048 104.741 25.1048H107.331C107.612 25.1048 108.231 24.9922 108.231 24.0353V3.9968C108.231 2.5896 108.062 1.63271 107.725 1.06983C107.443 0.39437 106.712 0.0566406 105.698 0.0566406Z" fill="white"/>
<path d="M131.09 0H113.641C113.416 0 112.797 0.112572 112.797 1.06947V3.43356C112.797 4.39045 113.36 4.44674 113.641 4.44674L131.09 4.50304C131.316 4.50304 131.935 4.39045 131.935 3.43356V1.06947C131.935 0.112572 131.372 0 131.09 0ZM131.09 19.5882H120.396C119.777 19.5882 119.27 19.4756 118.82 19.3631C118.426 19.1942 118.144 19.0253 117.919 18.6876C117.694 18.3499 117.469 17.8996 117.412 17.3367C117.356 17.1678 117.356 16.999 117.356 16.8301L117.412 14.6349H130.978C131.203 14.6349 131.822 14.5223 131.822 13.5654V11.2013C131.822 10.2444 131.203 10.1881 130.978 10.1881L115.33 10.2444C114.429 10.3007 113.697 10.751 113.247 11.539C113.078 11.7642 112.966 12.0456 112.909 12.2708L112.853 16.0983V16.2672C112.909 17.6744 113.022 18.9127 113.247 19.9259C113.529 21.1643 113.979 22.1212 114.542 22.9092C115.161 23.6972 115.949 24.2601 116.906 24.5978C117.863 24.9356 118.989 25.1044 120.283 25.1044H131.034C131.316 25.1044 131.935 24.9918 131.935 24.0912V20.7703C131.935 19.7008 131.372 19.5882 131.09 19.5882Z" fill="white"/>
<path d="M153.996 0.0566406H137.335C137.11 0.0566406 136.491 0.169218 136.491 1.06983V3.49021C136.491 4.4471 137.11 4.50339 137.335 4.50339H151.689C151.745 4.50339 151.801 4.55968 151.801 4.61597V5.57286C151.801 5.62915 151.801 5.62915 151.745 5.62915L137.617 15.8173C137.335 15.9861 137.11 16.155 136.997 16.3801C136.828 16.549 136.66 16.8305 136.547 17.0556C136.434 17.2808 136.378 17.5622 136.322 17.8999C136.266 18.1814 136.266 18.5191 136.266 18.9131V22.1778C136.266 23.1347 136.434 23.8102 136.772 24.3168C137.11 24.8233 137.729 25.0485 138.573 25.0485H155.235C155.46 25.0485 156.079 24.9359 156.079 24.0353V21.6149C156.079 20.658 155.46 20.6017 155.235 20.6017H140.881C140.825 20.6017 140.769 20.5455 140.769 20.4892V19.476C140.769 19.4197 140.769 19.4197 140.825 19.4197L154.841 9.34415C155.122 9.17529 155.347 9.00643 155.516 8.78127C155.685 8.61241 155.854 8.38726 155.966 8.10582C156.079 7.88067 156.135 7.59923 156.192 7.2615C156.248 6.98006 156.248 6.69862 156.248 6.30461V2.92733C156.304 0.506948 155.066 0.0566406 153.996 0.0566406Z" fill="white"/>
</g>
<defs>
<clipPath id="clip0_1_175">
<rect width="157" height="26" fill="white"/>
</clipPath>
</defs>
</svg>
