<svg width="80" height="61" viewBox="0 0 80 61" fill="none" xmlns="http://www.w3.org/2000/svg">
<path d="M34.7969 23.1193V21.4062H42.1733V23.1193H39.527V30.1335H37.4474V23.1193H34.7969Z" fill="white"/>
<path d="M45.2873 26.4006V30.1335H43.2035V21.4062H45.2191V24.7898H45.2915C45.4393 24.3864 45.6808 24.071 46.016 23.8438C46.354 23.6165 46.7674 23.5028 47.256 23.5028C47.7163 23.5028 48.1168 23.6051 48.4577 23.8097C48.7987 24.0114 49.0629 24.2969 49.2504 24.6662C49.4407 25.0355 49.5344 25.4673 49.5316 25.9616V30.1335H47.4478V26.3707C47.4506 26.0071 47.3597 25.723 47.1751 25.5185C46.9904 25.3139 46.7305 25.2116 46.3952 25.2116C46.1765 25.2116 45.9833 25.2599 45.8157 25.3565C45.6509 25.4503 45.5217 25.5852 45.4279 25.7614C45.337 25.9375 45.2901 26.1506 45.2873 26.4006Z" fill="white"/>
<path d="M53.892 30.2571C53.2074 30.2571 52.6165 30.1222 52.1193 29.8523C51.625 29.5795 51.2443 29.1918 50.9773 28.6889C50.7131 28.1832 50.581 27.5824 50.581 26.8864C50.581 26.2102 50.7145 25.6193 50.9815 25.1136C51.2486 24.6051 51.625 24.2102 52.1108 23.929C52.5966 23.6449 53.169 23.5028 53.8281 23.5028C54.294 23.5028 54.7202 23.5753 55.1065 23.7202C55.4929 23.8651 55.8267 24.0795 56.108 24.3636C56.3892 24.6477 56.608 24.9986 56.7642 25.4162C56.9205 25.831 56.9986 26.3068 56.9986 26.8438V27.3636H51.3097V26.1534H55.0597C55.0568 25.9318 55.0043 25.7344 54.902 25.5611C54.7997 25.3878 54.6591 25.2528 54.4801 25.1562C54.304 25.0568 54.1009 25.0071 53.8707 25.0071C53.6378 25.0071 53.429 25.0597 53.2443 25.1648C53.0597 25.267 52.9134 25.4077 52.8054 25.5866C52.6974 25.7628 52.6406 25.9631 52.6349 26.1875V27.419C52.6349 27.6861 52.6875 27.9205 52.7926 28.1222C52.8977 28.321 53.0469 28.4759 53.2401 28.5866C53.4332 28.6974 53.6634 28.7528 53.9304 28.7528C54.1151 28.7528 54.2827 28.7273 54.4332 28.6761C54.5838 28.625 54.7131 28.5497 54.821 28.4503C54.929 28.3509 55.0099 28.2287 55.0639 28.0838L56.9773 28.1392C56.8977 28.5682 56.723 28.9418 56.4531 29.2599C56.1861 29.5753 55.8352 29.821 55.4006 29.9972C54.9659 30.1705 54.4631 30.2571 53.892 30.2571Z" fill="white"/>
<path d="M40.3622 36.4063H42.4673V42.0355C42.4673 42.6861 42.3125 43.2528 42.0028 43.7358C41.6932 44.2159 41.2614 44.5881 40.7074 44.8523C40.1534 45.1136 39.5099 45.2443 38.777 45.2443C38.0355 45.2443 37.3878 45.1136 36.8338 44.8523C36.2798 44.5881 35.8494 44.2159 35.5426 43.7358C35.2358 43.2528 35.0824 42.6861 35.0824 42.0355V36.4063H37.1918V41.8523C37.1918 42.1534 37.2571 42.4219 37.3878 42.6577C37.5213 42.8935 37.7074 43.0781 37.946 43.2116C38.1847 43.3452 38.4616 43.4119 38.777 43.4119C39.0923 43.4119 39.3679 43.3452 39.6037 43.2116C39.8423 43.0781 40.0284 42.8935 40.1619 42.6577C40.2955 42.4219 40.3622 42.1534 40.3622 41.8523V36.4063Z" fill="white"/>
<path d="M45.8732 36.4063V45.1335H43.7894V36.4063H45.8732Z" fill="white"/>
<path d="M50.8942 38.5881V40.1222H46.7649V38.5881H50.8942ZM47.63 37.0199H49.7138V43.0753C49.7138 43.2031 49.7337 43.3068 49.7734 43.3864C49.8161 43.4631 49.8771 43.5185 49.9567 43.5526C50.0362 43.5838 50.1314 43.5994 50.2422 43.5994C50.3217 43.5994 50.4055 43.5923 50.4936 43.5781C50.5845 43.5611 50.6527 43.5469 50.6982 43.5355L51.0135 45.0398C50.9141 45.0682 50.7734 45.1037 50.5916 45.1463C50.4126 45.1889 50.1982 45.2159 49.9482 45.2273C49.4595 45.25 49.0405 45.1932 48.6911 45.0568C48.3445 44.9176 48.0788 44.7017 47.8942 44.4091C47.7124 44.1165 47.6243 43.7486 47.63 43.3054V37.0199Z" fill="white"/>
<path d="M51.9574 45.1335V38.5881H54.0412V45.1335H51.9574ZM53.0014 37.8253C52.7088 37.8253 52.4574 37.7287 52.2472 37.5355C52.0369 37.3395 51.9318 37.1037 51.9318 36.8281C51.9318 36.5554 52.0369 36.3224 52.2472 36.1293C52.4574 35.9332 52.7088 35.8352 53.0014 35.8352C53.2969 35.8352 53.5483 35.9332 53.7557 36.1293C53.9659 36.3224 54.071 36.5554 54.071 36.8281C54.071 37.1037 53.9659 37.3395 53.7557 37.5355C53.5483 37.7287 53.2969 37.8253 53.0014 37.8253Z" fill="white"/>
<path d="M55.3675 45.1335V38.5881H57.3491V39.7898H57.4215C57.5579 39.392 57.788 39.0781 58.1119 38.848C58.4357 38.6179 58.8221 38.5028 59.271 38.5028C59.7255 38.5028 60.1147 38.6193 60.4386 38.8523C60.7624 39.0852 60.9684 39.3977 61.0565 39.7898H61.1246C61.2468 39.4006 61.4854 39.0895 61.8406 38.8565C62.1957 38.6207 62.6147 38.5028 63.0977 38.5028C63.717 38.5028 64.2198 38.7017 64.6062 39.0994C64.9925 39.4943 65.1857 40.0369 65.1857 40.7273V45.1335H63.1019V41.2045C63.1019 40.8778 63.0181 40.6293 62.8505 40.4588C62.6829 40.2855 62.4656 40.1989 62.1985 40.1989C61.9116 40.1989 61.6857 40.2926 61.521 40.4801C61.359 40.6648 61.2781 40.9134 61.2781 41.2259V45.1335H59.2752V41.1832C59.2752 40.8793 59.1928 40.6392 59.0281 40.4631C58.8633 40.2869 58.646 40.1989 58.3761 40.1989C58.1942 40.1989 58.0337 40.2429 57.8945 40.331C57.7553 40.4162 57.646 40.5384 57.5664 40.6974C57.4897 40.8565 57.4513 41.044 57.4513 41.2599V45.1335H55.3675Z" fill="white"/>
<path d="M69.5366 45.2571C68.8519 45.2571 68.261 45.1222 67.7639 44.8523C67.2695 44.5795 66.8888 44.1918 66.6218 43.6889C66.3576 43.1832 66.2255 42.5824 66.2255 41.8864C66.2255 41.2102 66.359 40.6193 66.6261 40.1136C66.8931 39.6051 67.2695 39.2102 67.7553 38.929C68.2411 38.6449 68.8136 38.5028 69.4727 38.5028C69.9386 38.5028 70.3647 38.5753 70.7511 38.7202C71.1374 38.8651 71.4712 39.0795 71.7525 39.3636C72.0337 39.6477 72.2525 39.9986 72.4087 40.4162C72.565 40.831 72.6431 41.3068 72.6431 41.8438V42.3636H66.9542V41.1534H70.7042C70.7013 40.9318 70.6488 40.7344 70.5465 40.5611C70.4442 40.3878 70.3036 40.2528 70.1246 40.1562C69.9485 40.0568 69.7454 40.0071 69.5153 40.0071C69.2823 40.0071 69.0735 40.0597 68.8889 40.1648C68.7042 40.267 68.5579 40.4077 68.4499 40.5866C68.342 40.7628 68.2852 40.9631 68.2795 41.1875V42.419C68.2795 42.6861 68.332 42.9205 68.4371 43.1222C68.5423 43.321 68.6914 43.4759 68.8846 43.5866C69.0778 43.6974 69.3079 43.7528 69.5749 43.7528C69.7596 43.7528 69.9272 43.7273 70.0778 43.6761C70.2283 43.625 70.3576 43.5497 70.4656 43.4503C70.5735 43.3509 70.6545 43.2287 70.7085 43.0838L72.6218 43.1392C72.5423 43.5682 72.3675 43.9418 72.0977 44.2599C71.8306 44.5753 71.4798 44.821 71.0451 44.9972C70.6104 45.1705 70.1076 45.2571 69.5366 45.2571Z" fill="white"/>
<path d="M73.7244 45.1335V43.9446L76.7585 40.25V40.2074H73.831V38.5881H79.2429V39.892L76.4304 43.4716V43.5142H79.3452V45.1335H73.7244Z" fill="white"/>
<path d="M39.7997 54.0227C39.7713 53.7102 39.6449 53.4673 39.4205 53.294C39.1989 53.1179 38.8821 53.0298 38.4702 53.0298C38.1974 53.0298 37.9702 53.0653 37.7884 53.1364C37.6065 53.2074 37.4702 53.3054 37.3793 53.4304C37.2884 53.5526 37.2415 53.6932 37.2386 53.8523C37.233 53.983 37.2585 54.098 37.3153 54.1974C37.375 54.2969 37.4602 54.3849 37.571 54.4616C37.6847 54.5355 37.821 54.6008 37.9801 54.6577C38.1392 54.7145 38.3182 54.7642 38.517 54.8068L39.267 54.9773C39.6989 55.071 40.0795 55.196 40.4091 55.3523C40.7415 55.5085 41.0199 55.6946 41.2443 55.9105C41.4716 56.1264 41.6435 56.375 41.7599 56.6562C41.8764 56.9375 41.9361 57.2528 41.9389 57.6023C41.9361 58.1534 41.7969 58.6264 41.5213 59.0213C41.2457 59.4162 40.8494 59.7188 40.3324 59.929C39.8182 60.1392 39.1974 60.2443 38.4702 60.2443C37.7401 60.2443 37.1037 60.1349 36.5611 59.9162C36.0185 59.6974 35.5966 59.3651 35.2955 58.919C34.9943 58.473 34.8395 57.9091 34.831 57.2273H36.8509C36.8679 57.5085 36.9432 57.7429 37.0767 57.9304C37.2102 58.1179 37.3935 58.2599 37.6264 58.3565C37.8622 58.4531 38.1349 58.5014 38.4446 58.5014C38.7287 58.5014 38.9702 58.4631 39.169 58.3864C39.3707 58.3097 39.5256 58.2031 39.6335 58.0668C39.7415 57.9304 39.7969 57.7741 39.7997 57.598C39.7969 57.4332 39.7457 57.2926 39.6463 57.1761C39.5469 57.0568 39.3935 56.9545 39.1861 56.8693C38.9815 56.7812 38.7202 56.7003 38.402 56.6264L37.4901 56.4134C36.7344 56.2401 36.1392 55.9602 35.7045 55.5739C35.2699 55.1847 35.054 54.6591 35.0568 53.9972C35.054 53.4574 35.1989 52.9844 35.4915 52.5781C35.7841 52.1719 36.1889 51.8551 36.706 51.6278C37.223 51.4006 37.8125 51.2869 38.4744 51.2869C39.1506 51.2869 39.7372 51.402 40.2344 51.6321C40.7344 51.8594 41.1222 52.179 41.3977 52.5909C41.6733 53.0028 41.8139 53.4801 41.8196 54.0227H39.7997Z" fill="white"/>
<path d="M46.6989 53.5881V55.1222H42.5696V53.5881H46.6989ZM43.4347 52.0199H45.5185V58.0753C45.5185 58.2031 45.5384 58.3068 45.5781 58.3864C45.6207 58.4631 45.6818 58.5185 45.7614 58.5526C45.8409 58.5838 45.9361 58.5994 46.0469 58.5994C46.1264 58.5994 46.2102 58.5923 46.2983 58.5781C46.3892 58.5611 46.4574 58.5469 46.5028 58.5355L46.8182 60.0398C46.7188 60.0682 46.5781 60.1037 46.3963 60.1463C46.2173 60.1889 46.0028 60.2159 45.7528 60.2273C45.2642 60.25 44.8452 60.1932 44.4957 60.0568C44.1491 59.9176 43.8835 59.7017 43.6989 59.4091C43.517 59.1165 43.429 58.7486 43.4347 58.3054V52.0199Z" fill="white"/>
<path d="M51.9851 57.3082V53.5881H54.0646V60.1335H52.0788V58.9148H52.0107C51.8658 59.3153 51.6186 59.6335 51.2692 59.8693C50.9226 60.1023 50.5036 60.2188 50.0121 60.2188C49.5661 60.2188 49.174 60.1165 48.8359 59.9119C48.4979 59.7074 48.2351 59.4219 48.0476 59.0554C47.8601 58.6861 47.7649 58.2543 47.7621 57.7599V53.5881H49.8459V57.3509C49.8487 57.706 49.9425 57.9858 50.1271 58.1903C50.3118 58.3949 50.5632 58.4972 50.8814 58.4972C51.0888 58.4972 51.2749 58.4517 51.4396 58.3608C51.6072 58.267 51.7393 58.1321 51.8359 57.956C51.9354 57.777 51.9851 57.5611 51.9851 57.3082Z" fill="white"/>
<path d="M57.7816 60.2273C57.2987 60.2273 56.8597 60.1023 56.4648 59.8523C56.07 59.6023 55.7546 59.2273 55.5188 58.7273C55.283 58.2273 55.1651 57.6065 55.1651 56.8651C55.1651 56.0952 55.2873 55.4616 55.5316 54.9645C55.7759 54.4673 56.0955 54.0994 56.4904 53.8608C56.8881 53.6222 57.3157 53.5028 57.7731 53.5028C58.1168 53.5028 58.4109 53.5625 58.6552 53.6818C58.8995 53.7983 59.1012 53.9489 59.2603 54.1335C59.4194 54.3182 59.5401 54.5099 59.6225 54.7088H59.6651V51.4062H61.7489V60.1335H59.6864V59.0724H59.6225C59.5344 59.2741 59.4094 59.4631 59.2475 59.6392C59.0856 59.8153 58.8825 59.9574 58.6381 60.0653C58.3967 60.1733 58.1112 60.2273 57.7816 60.2273ZM58.506 58.6037C58.7589 58.6037 58.9748 58.5327 59.1538 58.3906C59.3327 58.2457 59.4705 58.0426 59.5671 57.7812C59.6637 57.5199 59.712 57.2131 59.712 56.8608C59.712 56.5028 59.6637 56.1946 59.5671 55.9361C59.4734 55.6776 59.3356 55.4787 59.1538 55.3395C58.9748 55.2003 58.7589 55.1307 58.506 55.1307C58.2475 55.1307 58.0288 55.2017 57.8498 55.3438C57.6708 55.4858 57.5344 55.6861 57.4407 55.9446C57.3498 56.2031 57.3043 56.5085 57.3043 56.8608C57.3043 57.2131 57.3512 57.5199 57.445 57.7812C57.5387 58.0426 57.6737 58.2457 57.8498 58.3906C58.0288 58.5327 58.2475 58.6037 58.506 58.6037Z" fill="white"/>
<path d="M63.0668 60.1335V53.5881H65.1506V60.1335H63.0668ZM64.1108 52.8253C63.8182 52.8253 63.5668 52.7287 63.3565 52.5355C63.1463 52.3395 63.0412 52.1037 63.0412 51.8281C63.0412 51.5554 63.1463 51.3224 63.3565 51.1293C63.5668 50.9332 63.8182 50.8352 64.1108 50.8352C64.4062 50.8352 64.6577 50.9332 64.8651 51.1293C65.0753 51.3224 65.1804 51.5554 65.1804 51.8281C65.1804 52.1037 65.0753 52.3395 64.8651 52.5355C64.6577 52.7287 64.4062 52.8253 64.1108 52.8253Z" fill="white"/>
<path d="M69.5323 60.2571C68.8448 60.2571 68.2539 60.1165 67.7596 59.8352C67.2681 59.5511 66.8888 59.1562 66.6218 58.6506C66.3576 58.142 66.2255 57.5526 66.2255 56.8821C66.2255 56.2088 66.3576 55.6193 66.6218 55.1136C66.8888 54.6051 67.2681 54.2102 67.7596 53.929C68.2539 53.6449 68.8448 53.5028 69.5323 53.5028C70.2198 53.5028 70.8093 53.6449 71.3008 53.929C71.7951 54.2102 72.1744 54.6051 72.4386 55.1136C72.7056 55.6193 72.8391 56.2088 72.8391 56.8821C72.8391 57.5526 72.7056 58.142 72.4386 58.6506C72.1744 59.1562 71.7951 59.5511 71.3008 59.8352C70.8093 60.1165 70.2198 60.2571 69.5323 60.2571ZM69.5451 58.6847C69.7951 58.6847 70.0067 58.608 70.18 58.4545C70.3533 58.3011 70.4854 58.0881 70.5764 57.8153C70.6701 57.5426 70.717 57.2273 70.717 56.8693C70.717 56.5057 70.6701 56.1875 70.5764 55.9148C70.4854 55.642 70.3533 55.429 70.18 55.2756C70.0067 55.1222 69.7951 55.0455 69.5451 55.0455C69.2866 55.0455 69.0678 55.1222 68.8889 55.2756C68.7127 55.429 68.5778 55.642 68.484 55.9148C68.3931 56.1875 68.3477 56.5057 68.3477 56.8693C68.3477 57.2273 68.3931 57.5426 68.484 57.8153C68.5778 58.0881 68.7127 58.3011 68.8889 58.4545C69.0678 58.608 69.2866 58.6847 69.5451 58.6847Z" fill="white"/>
<path fill-rule="evenodd" clip-rule="evenodd" d="M29.4894 0.00195312H0.046875V60.2627H29.4894V0.00195312ZM11.916 2.85889C12.6998 3.64269 13.1401 4.70574 13.1401 5.8142H8.96068L4.78125 5.8142C4.78125 4.70574 5.22158 3.64269 6.00538 2.85889C6.78917 2.0751 7.85223 1.63477 8.96068 1.63477C10.0691 1.63477 11.1322 2.0751 11.916 2.85889ZM3.34964 12.3091C2.56584 11.5253 2.12551 10.4622 2.12551 9.35377H6.30494L10.4844 9.35377C10.4844 10.4622 10.044 11.5253 9.26025 12.3091C8.47645 13.0929 7.4134 13.5332 6.30494 13.5332C5.19649 13.5332 4.13343 13.0929 3.34964 12.3091ZM15.957 22.332C15.957 23.9083 16.5832 25.42 17.6978 26.5346C18.8124 27.6492 20.3241 28.2754 21.9004 28.2754C23.4767 28.2754 24.9884 27.6492 26.103 26.5346C27.2176 25.42 27.8438 23.9083 27.8438 22.332L25.3082 22.332C25.3082 23.2358 24.9491 24.1026 24.3101 24.7417C23.671 25.3808 22.8042 25.7398 21.9004 25.7398C20.9966 25.7398 20.1298 25.3808 19.4907 24.7417C18.8516 24.1026 18.4926 23.2358 18.4926 22.332H15.957ZM11.8374 41.4057C10.7228 42.5203 9.21104 43.1465 7.63476 43.1465V40.02C8.38184 40.02 9.09832 39.7232 9.62659 39.195C10.1549 38.6667 10.4516 37.9502 10.4516 37.2031C10.4516 36.4561 10.1549 35.7396 9.62659 35.2113C9.09832 34.683 8.38184 34.3863 7.63476 34.3863L7.63476 31.2598C9.21104 31.2598 10.7228 31.8859 11.8374 33.0005C12.952 34.1151 13.5781 35.6269 13.5781 37.2031C13.5781 38.7794 12.952 40.2911 11.8374 41.4057ZM7.63476 58.6328C4.35233 58.6328 1.6914 55.9719 1.6914 52.6895C1.6914 49.407 4.35233 46.7461 7.63476 46.7461C10.9172 46.7461 13.5781 49.407 13.5781 52.6895C13.5781 55.9719 10.9172 58.6328 7.63476 58.6328ZM23.891 31.2598H19.9219V43.1465H23.891V31.2598ZM6.36719 15.5508L2.12575 15.5508L2.12575 18.073H6.36719V27.8461H8.88945V18.073H13.1406V15.5508H8.88945H6.36719ZM27.8438 15.5508V21.9674H15.9572V15.5508L27.8438 15.5508Z" fill="#D9D9D9"/>
</svg>
