<svg width="94" height="34" viewBox="0 0 94 34" fill="none" xmlns="http://www.w3.org/2000/svg">
<path d="M12.4069 10.9208C12.4069 11.5341 12.3135 12.0941 12.1269 12.6008C11.9535 13.0941 11.6335 13.5208 11.1669 13.8808C10.7135 14.2274 10.0869 14.5008 9.28688 14.7008C8.48688 14.9008 7.46688 15.0008 6.22688 15.0008C4.98688 15.0008 3.96687 14.9008 3.16687 14.7008C2.36687 14.5008 1.73354 14.2274 1.26687 13.8808C0.813542 13.5208 0.493542 13.0941 0.306875 12.6008C0.133542 12.0941 0.046875 11.5341 0.046875 10.9208V1.02078C0.046875 0.767448 0.100208 0.587448 0.206875 0.480781C0.326875 0.360781 0.513542 0.300781 0.766875 0.300781H3.90687C4.16021 0.300781 4.34021 0.360781 4.44688 0.480781C4.56687 0.587448 4.62687 0.767448 4.62687 1.02078V10.1408C4.62687 10.4074 4.72688 10.6341 4.92688 10.8208C5.12688 10.9941 5.57354 11.0808 6.26688 11.0808C6.97354 11.0808 7.42688 10.9941 7.62688 10.8208C7.82688 10.6341 7.92688 10.4074 7.92688 10.1408V1.02078C7.92688 0.767448 7.98021 0.587448 8.08688 0.480781C8.20688 0.360781 8.39354 0.300781 8.64688 0.300781H11.6869C11.9402 0.300781 12.1202 0.360781 12.2269 0.480781C12.3469 0.587448 12.4069 0.767448 12.4069 1.02078V10.9208Z" fill="white"/>
<path d="M25.9688 14.7008H15.7888C15.5354 14.7008 15.3488 14.6474 15.2288 14.5408C15.1221 14.4208 15.0688 14.2341 15.0688 13.9808V1.02078C15.0688 0.767448 15.1221 0.587448 15.2288 0.480781C15.3488 0.360781 15.5354 0.300781 15.7888 0.300781H18.8888C19.1421 0.300781 19.3221 0.360781 19.4287 0.480781C19.5487 0.587448 19.6087 0.767448 19.6087 1.02078V10.9208H22.3487V7.68078C22.3487 7.42745 22.4021 7.24745 22.5087 7.14078C22.6287 7.02078 22.8154 6.96078 23.0688 6.96078H25.9688C26.2221 6.96078 26.4021 7.02078 26.5087 7.14078C26.6287 7.24745 26.6887 7.42745 26.6887 7.68078V13.9808C26.6887 14.2341 26.6287 14.4208 26.5087 14.5408C26.4021 14.6474 26.2221 14.7008 25.9688 14.7008Z" fill="white"/>
<path d="M34.3688 14.7008H31.1287C30.8754 14.7008 30.6888 14.6474 30.5688 14.5408C30.4621 14.4208 30.4087 14.2341 30.4087 13.9808V4.16078H27.4688C27.2154 4.16078 27.0287 4.10745 26.9087 4.00078C26.8021 3.88078 26.7487 3.69411 26.7487 3.44078V1.02078C26.7487 0.767448 26.8021 0.587448 26.9087 0.480781C27.0287 0.360781 27.2154 0.300781 27.4688 0.300781H38.0288C38.2821 0.300781 38.4621 0.360781 38.5688 0.480781C38.6888 0.587448 38.7488 0.767448 38.7488 1.02078V3.44078C38.7488 3.69411 38.6888 3.88078 38.5688 4.00078C38.4621 4.10745 38.2821 4.16078 38.0288 4.16078H35.0888V13.9808C35.0888 14.2341 35.0288 14.4208 34.9088 14.5408C34.8021 14.6474 34.6221 14.7008 34.3688 14.7008Z" fill="white"/>
<path d="M41.0938 14.7008C40.8404 14.7008 40.6538 14.6474 40.5338 14.5408C40.4271 14.4208 40.3738 14.2341 40.3738 13.9808V11.6008C40.3738 11.3474 40.4271 11.1674 40.5338 11.0608C40.6538 10.9408 40.8404 10.8808 41.0938 10.8808H43.0737V4.16078H41.0938C40.8404 4.16078 40.6538 4.10745 40.5338 4.00078C40.4271 3.88078 40.3738 3.69411 40.3738 3.44078V1.02078C40.3738 0.767448 40.4271 0.587448 40.5338 0.480781C40.6538 0.360781 40.8404 0.300781 41.0938 0.300781H49.6138C49.8671 0.300781 50.0471 0.360781 50.1538 0.480781C50.2738 0.587448 50.3338 0.767448 50.3338 1.02078V3.44078C50.3338 3.69411 50.2738 3.88078 50.1538 4.00078C50.0471 4.10745 49.8671 4.16078 49.6138 4.16078H47.6738V10.8808H49.6138C49.8671 10.8808 50.0471 10.9408 50.1538 11.0608C50.2738 11.1674 50.3338 11.3474 50.3338 11.6008V13.9808C50.3338 14.2341 50.2738 14.4208 50.1538 14.5408C50.0471 14.6474 49.8671 14.7008 49.6138 14.7008H41.0938Z" fill="white"/>
<path d="M56.5031 14.7008H53.5231C53.2698 14.7008 53.0831 14.6474 52.9631 14.5408C52.8565 14.4208 52.8031 14.2341 52.8031 13.9808V1.02078C52.8031 0.767448 52.8565 0.587448 52.9631 0.480781C53.0831 0.360781 53.2698 0.300781 53.5231 0.300781H56.7431C56.9565 0.300781 57.1298 0.347448 57.2631 0.440781C57.4098 0.534114 57.5431 0.687448 57.6631 0.900781L59.4631 4.16078C59.5298 4.28078 59.5831 4.36745 59.6231 4.42078C59.6765 4.47411 59.7431 4.50078 59.8231 4.50078H60.0031C60.0831 4.50078 60.1431 4.47411 60.1831 4.42078C60.2365 4.36745 60.2965 4.28078 60.3631 4.16078L62.1431 0.900781C62.2631 0.687448 62.3898 0.534114 62.5231 0.440781C62.6698 0.347448 62.8498 0.300781 63.0631 0.300781H66.3031C66.5565 0.300781 66.7365 0.360781 66.8431 0.480781C66.9631 0.587448 67.0231 0.767448 67.0231 1.02078V13.9808C67.0231 14.2341 66.9631 14.4208 66.8431 14.5408C66.7365 14.6474 66.5565 14.7008 66.3031 14.7008H63.2231C62.9698 14.7008 62.7831 14.6474 62.6631 14.5408C62.5565 14.4208 62.5031 14.2341 62.5031 13.9808V6.94078L61.3231 9.12078C61.2031 9.34745 61.0565 9.51412 60.8831 9.62078C60.7231 9.71412 60.5165 9.76078 60.2631 9.76078H59.4631C59.2098 9.76078 58.9965 9.71412 58.8231 9.62078C58.6631 9.51412 58.5231 9.34745 58.4031 9.12078L57.2231 6.94078V13.9808C57.2231 14.2341 57.1631 14.4208 57.0431 14.5408C56.9365 14.6474 56.7565 14.7008 56.5031 14.7008Z" fill="white"/>
<path d="M79.7758 14.7008H70.4958C70.2424 14.7008 70.0558 14.6474 69.9358 14.5408C69.8291 14.4208 69.7758 14.2341 69.7758 13.9808V1.02078C69.7758 0.767448 69.8291 0.587448 69.9358 0.480781C70.0558 0.360781 70.2424 0.300781 70.4958 0.300781H79.7758C80.0291 0.300781 80.2091 0.360781 80.3158 0.480781C80.4358 0.587448 80.4958 0.767448 80.4958 1.02078V3.36078C80.4958 3.61411 80.4358 3.80078 80.3158 3.92078C80.2091 4.02745 80.0291 4.08078 79.7758 4.08078H74.2558V5.62078H78.1558C78.4091 5.62078 78.5891 5.68078 78.6958 5.80078C78.8158 5.90745 78.8758 6.08745 78.8758 6.34078V8.48078C78.8758 8.73411 78.8158 8.92078 78.6958 9.04078C78.5891 9.14745 78.4091 9.20078 78.1558 9.20078H74.2558V10.9208H79.7758C80.0291 10.9208 80.2091 10.9808 80.3158 11.1008C80.4358 11.2074 80.4958 11.3874 80.4958 11.6408V13.9808C80.4958 14.2341 80.4358 14.4208 80.3158 14.5408C80.2091 14.6474 80.0291 14.7008 79.7758 14.7008Z" fill="white"/>
<path d="M93.0417 14.7008H83.1217C82.8684 14.7008 82.6817 14.6474 82.5617 14.5408C82.4551 14.4208 82.4017 14.2341 82.4017 13.9808V11.3008C82.4017 11.0474 82.4417 10.8274 82.5217 10.6408C82.6017 10.4408 82.7284 10.2474 82.9017 10.0608L87.7617 4.16078H83.4817C83.2284 4.16078 83.0417 4.10745 82.9217 4.00078C82.8151 3.88078 82.7617 3.69411 82.7617 3.44078V1.02078C82.7617 0.767448 82.8151 0.587448 82.9217 0.480781C83.0417 0.360781 83.2284 0.300781 83.4817 0.300781H92.6817C92.9351 0.300781 93.1151 0.360781 93.2217 0.480781C93.3417 0.587448 93.4017 0.767448 93.4017 1.02078V4.00078C93.4017 4.26745 93.3617 4.50078 93.2817 4.70078C93.2017 4.88745 93.0751 5.07411 92.9017 5.26078L88.2617 10.8808H93.0417C93.2951 10.8808 93.4751 10.9408 93.5817 11.0608C93.7017 11.1674 93.7617 11.3474 93.7617 11.6008V13.9808C93.7617 14.2341 93.7017 14.4208 93.5817 14.5408C93.4751 14.6474 93.2951 14.7008 93.0417 14.7008Z" fill="white"/>
<path d="M11.0469 33.7008H0.866875C0.613542 33.7008 0.426875 33.6474 0.306875 33.5408C0.200208 33.4208 0.146875 33.2341 0.146875 32.9808V20.0208C0.146875 19.7674 0.200208 19.5874 0.306875 19.4808C0.426875 19.3608 0.613542 19.3008 0.866875 19.3008H3.96688C4.22021 19.3008 4.40021 19.3608 4.50687 19.4808C4.62687 19.5874 4.68687 19.7674 4.68687 20.0208V29.9208H7.42688V26.6808C7.42688 26.4274 7.48021 26.2474 7.58688 26.1408C7.70688 26.0208 7.89354 25.9608 8.14688 25.9608H11.0469C11.3002 25.9608 11.4802 26.0208 11.5869 26.1408C11.7069 26.2474 11.7669 26.4274 11.7669 26.6808V32.9808C11.7669 33.2341 11.7069 33.4208 11.5869 33.5408C11.4802 33.6474 11.3002 33.7008 11.0469 33.7008Z" fill="white"/>
<path d="M18.1331 32.9808C18.1331 33.2341 18.0731 33.4208 17.9531 33.5408C17.8465 33.6474 17.6665 33.7008 17.4131 33.7008H14.4731C14.2198 33.7008 14.0331 33.6474 13.9131 33.5408C13.8065 33.4208 13.7531 33.2341 13.7531 32.9808V27.7008C13.7531 27.3008 13.8131 26.8408 13.9331 26.3208C14.0665 25.8008 14.2665 25.1941 14.5331 24.5008L16.2731 19.9608C16.3531 19.7341 16.4731 19.5674 16.6331 19.4608C16.8065 19.3541 17.0265 19.3008 17.2931 19.3008H22.6731C22.9265 19.3008 23.1331 19.3541 23.2931 19.4608C23.4665 19.5674 23.5931 19.7341 23.6731 19.9608L25.4131 24.5008C25.6798 25.1941 25.8731 25.8008 25.9931 26.3208C26.1265 26.8408 26.1931 27.3008 26.1931 27.7008V32.9808C26.1931 33.2341 26.1331 33.4208 26.0131 33.5408C25.9065 33.6474 25.7265 33.7008 25.4731 33.7008H22.4531C22.1865 33.7008 21.9865 33.6474 21.8531 33.5408C21.7331 33.4208 21.6731 33.2341 21.6731 32.9808V30.1808H18.1331V32.9808Z" fill="white"/>
<path d="M37.0625 33.7008H29.3825C29.1292 33.7008 28.9425 33.6474 28.8225 33.5408C28.7158 33.4208 28.6625 33.2341 28.6625 32.9808V20.0208C28.6625 19.7674 28.7158 19.5874 28.8225 19.4808C28.9425 19.3608 29.1292 19.3008 29.3825 19.3008H35.7625C37.0692 19.3008 38.0358 19.5541 38.6625 20.0608C39.2892 20.5541 39.6025 21.3208 39.6025 22.3608V23.3208C39.6025 23.8808 39.5025 24.3408 39.3025 24.7008C39.1158 25.0474 38.8225 25.3074 38.4225 25.4808C39.2758 25.5608 39.9092 25.8541 40.3225 26.3608C40.7358 26.8674 40.9425 27.6074 40.9425 28.5808V30.4208C40.9425 31.5408 40.6225 32.3675 39.9825 32.9008C39.3558 33.4341 38.3825 33.7008 37.0625 33.7008Z" fill="white"/>
</svg>
